<?xml version="1.0" encoding="UTF-8"?>
<svg xmlns="http://www.w3.org/2000/svg" xmlns:xlink="http://www.w3.org/1999/xlink" width="48px" height="48px" viewBox="0 0 48 48" version="1.1">
<g id="surface1">
<path style=" stroke:none;fill-rule:nonzero;fill:rgb(0%,0%,0%);fill-opacity:1;" d="M 47.507812 12.886719 L 45.105469 10.480469 C 44.785156 10.160156 44.414062 10 43.996094 10 C 43.582031 10 43.214844 10.160156 42.894531 10.480469 L 23.996094 29.378906 L 5.097656 10.484375 C 4.777344 10.160156 4.40625 10 3.992188 10 C 3.574219 10 3.203125 10.160156 2.882812 10.484375 L 0.480469 12.886719 C 0.160156 13.207031 0 13.574219 0 13.992188 C 0 14.410156 0.160156 14.777344 0.480469 15.097656 L 22.886719 37.507812 C 23.207031 37.828125 23.578125 37.988281 23.996094 37.988281 C 24.410156 37.988281 24.777344 37.828125 25.097656 37.507812 L 47.507812 15.097656 C 47.828125 14.777344 47.988281 14.410156 47.988281 13.992188 C 47.988281 13.574219 47.828125 13.207031 47.507812 12.886719 Z M 47.507812 12.886719 "/>
</g>
</svg>
